<mxfile host="app.diagrams.net" modified="2020-11-14T02:22:35.320Z" agent="5.0 (Windows NT 10.0; Win64; x64) AppleWebKit/537.36 (KHTML, like Gecko) Chrome/84.0.4147.135 Safari/537.36" etag="pNWwNCnXbP2w9_XwSEn4" version="13.9.8" type="github">
  <diagram id="1bJFmHD9IC9fpJOTvhR8" name="Page-1">
    <mxGraphModel dx="942" dy="582" grid="1" gridSize="10" guides="1" tooltips="1" connect="1" arrows="1" fold="1" page="1" pageScale="1" pageWidth="827" pageHeight="1169" math="0" shadow="0">
      <root>
        <mxCell id="0" />
        <mxCell id="1" parent="0" />
        <mxCell id="kLpi_y58Db2AcbTNZNR1-9" value="" style="endArrow=none;html=1;entryX=-0.05;entryY=0.935;entryDx=0;entryDy=0;entryPerimeter=0;" edge="1" parent="1">
          <mxGeometry width="50" height="50" relative="1" as="geometry">
            <mxPoint x="299" y="348.5" as="sourcePoint" />
            <mxPoint x="645" y="348" as="targetPoint" />
          </mxGeometry>
        </mxCell>
        <mxCell id="kLpi_y58Db2AcbTNZNR1-16" value="&lt;font style=&quot;font-size: 20px&quot;&gt;brvlan&lt;br&gt;291&lt;/font&gt;" style="rounded=1;whiteSpace=wrap;html=1;strokeWidth=4;" vertex="1" parent="1">
          <mxGeometry x="490" y="228" width="80" height="212" as="geometry" />
        </mxCell>
        <mxCell id="kLpi_y58Db2AcbTNZNR1-2" value="&lt;font style=&quot;font-size: 35px&quot;&gt;controller&lt;/font&gt;" style="rounded=1;whiteSpace=wrap;html=1;" vertex="1" parent="1">
          <mxGeometry x="30" y="170" width="230" height="120" as="geometry" />
        </mxCell>
        <mxCell id="kLpi_y58Db2AcbTNZNR1-3" value="&lt;font style=&quot;font-size: 35px&quot;&gt;compute01&lt;/font&gt;" style="rounded=1;whiteSpace=wrap;html=1;" vertex="1" parent="1">
          <mxGeometry x="30" y="310" width="230" height="120" as="geometry" />
        </mxCell>
        <mxCell id="kLpi_y58Db2AcbTNZNR1-4" value="ENS3" style="rounded=1;whiteSpace=wrap;html=1;" vertex="1" parent="1">
          <mxGeometry x="260" y="192" width="40" height="30" as="geometry" />
        </mxCell>
        <mxCell id="kLpi_y58Db2AcbTNZNR1-5" value="ENS3" style="rounded=1;whiteSpace=wrap;html=1;" vertex="1" parent="1">
          <mxGeometry x="259" y="334" width="40" height="30" as="geometry" />
        </mxCell>
        <mxCell id="kLpi_y58Db2AcbTNZNR1-6" value="ENS9" style="rounded=1;whiteSpace=wrap;html=1;" vertex="1" parent="1">
          <mxGeometry x="260" y="242" width="40" height="30" as="geometry" />
        </mxCell>
        <mxCell id="kLpi_y58Db2AcbTNZNR1-7" value="ENS9" style="rounded=1;whiteSpace=wrap;html=1;" vertex="1" parent="1">
          <mxGeometry x="259" y="383" width="40" height="30" as="geometry" />
        </mxCell>
        <mxCell id="kLpi_y58Db2AcbTNZNR1-8" value="" style="endArrow=none;html=1;entryX=-0.012;entryY=0.11;entryDx=0;entryDy=0;entryPerimeter=0;" edge="1" parent="1">
          <mxGeometry width="50" height="50" relative="1" as="geometry">
            <mxPoint x="300" y="206.5" as="sourcePoint" />
            <mxPoint x="649.04" y="206" as="targetPoint" />
          </mxGeometry>
        </mxCell>
        <mxCell id="kLpi_y58Db2AcbTNZNR1-10" value="&lt;font style=&quot;font-size: 20px&quot;&gt;br0&lt;br&gt;&lt;/font&gt;" style="rounded=1;whiteSpace=wrap;html=1;strokeWidth=4;" vertex="1" parent="1">
          <mxGeometry x="650" y="170" width="80" height="210" as="geometry" />
        </mxCell>
        <mxCell id="kLpi_y58Db2AcbTNZNR1-11" value="172.28.3.104" style="text;html=1;align=center;verticalAlign=middle;resizable=0;points=[];autosize=1;" vertex="1" parent="1">
          <mxGeometry x="290" y="189" width="90" height="20" as="geometry" />
        </mxCell>
        <mxCell id="kLpi_y58Db2AcbTNZNR1-12" value="172.28.3.105" style="text;html=1;align=center;verticalAlign=middle;resizable=0;points=[];autosize=1;" vertex="1" parent="1">
          <mxGeometry x="289" y="330" width="90" height="20" as="geometry" />
        </mxCell>
        <mxCell id="kLpi_y58Db2AcbTNZNR1-14" value="" style="endArrow=none;html=1;" edge="1" parent="1">
          <mxGeometry width="50" height="50" relative="1" as="geometry">
            <mxPoint x="302" y="257" as="sourcePoint" />
            <mxPoint x="490" y="257" as="targetPoint" />
          </mxGeometry>
        </mxCell>
        <mxCell id="kLpi_y58Db2AcbTNZNR1-15" value="" style="endArrow=none;html=1;" edge="1" parent="1">
          <mxGeometry width="50" height="50" relative="1" as="geometry">
            <mxPoint x="299" y="397.5" as="sourcePoint" />
            <mxPoint x="487" y="397.5" as="targetPoint" />
          </mxGeometry>
        </mxCell>
        <mxCell id="kLpi_y58Db2AcbTNZNR1-17" value="172.24.18.104" style="text;html=1;align=center;verticalAlign=middle;resizable=0;points=[];autosize=1;" vertex="1" parent="1">
          <mxGeometry x="293" y="240" width="90" height="20" as="geometry" />
        </mxCell>
        <mxCell id="kLpi_y58Db2AcbTNZNR1-18" value="172.24.18.105" style="text;html=1;align=center;verticalAlign=middle;resizable=0;points=[];autosize=1;" vertex="1" parent="1">
          <mxGeometry x="292" y="380" width="90" height="20" as="geometry" />
        </mxCell>
        <mxCell id="kLpi_y58Db2AcbTNZNR1-19" value="Management &lt;br&gt;layer" style="text;html=1;align=center;verticalAlign=middle;resizable=0;points=[];autosize=1;" vertex="1" parent="1">
          <mxGeometry x="645" y="218" width="90" height="30" as="geometry" />
        </mxCell>
        <mxCell id="kLpi_y58Db2AcbTNZNR1-20" value="Provider&amp;nbsp;&lt;br&gt;layer" style="text;html=1;align=center;verticalAlign=middle;resizable=0;points=[];autosize=1;" vertex="1" parent="1">
          <mxGeometry x="500" y="270" width="60" height="30" as="geometry" />
        </mxCell>
      </root>
    </mxGraphModel>
  </diagram>
</mxfile>
